<svg viewBox="0 0 94 150" fill="none" xmlns="http://www.w3.org/2000/svg">
<rect x="19.5142" y="28.1078" width="105.403" height="27.3852" rx="2" transform="rotate(45.4452 19.5142 28.1078)" fill="#BA478F"/>
<path d="M24.0289 90.7864C24.816 90.0115 26.0823 90.0213 26.8573 90.8084L64.8158 129.362C65.5908 130.149 65.5809 131.415 64.7938 132.19L48.13 148.597C47.3429 149.372 46.0766 149.362 45.3016 148.575L7.3431 110.022C6.56814 109.235 6.57798 107.968 7.36508 107.193L24.0289 90.7864Z" fill="#EB743B"/>
<path d="M46.5879 1.40318C47.375 0.628225 48.6413 0.638066 49.4162 1.42516L85.2962 37.8671C86.0711 38.6542 86.0613 39.9205 85.2742 40.6955L68.6103 57.1023C67.8232 57.8773 66.5569 57.8674 65.782 57.0803L29.9021 20.6384C29.1271 19.8513 29.1369 18.585 29.924 17.81L46.5879 1.40318Z" fill="#BA478F"/>
<path d="M26.3738 117.894C27.2335 118.45 28.2595 118.638 29.2652 118.421C29.9725 118.267 30.6191 117.918 31.1345 117.412C32.0783 116.484 32.4744 115.161 32.1926 113.874C31.8595 112.328 30.633 111.201 29.1671 110.924C28.9858 107.488 31.1589 105.187 31.7187 104.654C34.0675 103.752 35.892 102.449 37.1944 101.304L35.4437 99.5221C34.2923 100.527 32.6674 101.649 30.6077 102.402C30.6046 102.404 30.6024 102.406 30.5988 102.407C28.3782 103.219 26.054 103.431 23.6768 103.039C23.6616 102.902 23.6407 102.766 23.6114 102.631C23.1617 100.572 21.1205 99.2565 19.0635 99.7005C18.354 99.8525 17.7057 100.201 17.1889 100.709C16.2469 101.635 15.8495 102.959 16.1277 104.251C16.5716 106.314 18.6137 107.629 20.6818 107.184C21.6804 106.966 22.5479 106.326 23.0933 105.476C24.7227 105.763 26.3347 105.811 27.9148 105.616C27.1335 107.065 26.501 108.994 26.6789 111.296C26.3485 111.47 26.0421 111.688 25.7728 111.953C24.8294 112.88 24.4346 114.204 24.7151 115.489C24.9279 116.485 25.5163 117.339 26.3738 117.894V117.894ZM21.1642 103.165C21.2058 103.358 21.2027 103.557 21.1537 103.755C21.0951 103.994 20.9703 104.212 20.7924 104.387C20.614 104.562 20.3911 104.683 20.1515 104.735C19.4368 104.888 18.7313 104.434 18.5784 103.723C18.4824 103.276 18.6195 102.817 18.9458 102.496C19.1228 102.322 19.3453 102.203 19.5902 102.149C20.3023 101.996 21.0086 102.453 21.1642 103.165V103.165ZM27.1649 114.96C27.0158 114.274 27.4721 113.545 28.1771 113.393L28.2475 113.38C28.9385 113.268 29.5962 113.717 29.7454 114.406C29.8418 114.849 29.7053 115.304 29.3794 115.625C29.2024 115.799 28.979 115.919 28.7354 115.972C28.3887 116.046 28.0334 115.982 27.735 115.789C27.4405 115.599 27.2379 115.307 27.1649 114.96V114.96Z" fill="#FFFEDB"/>
<path d="M41.3543 135.073C42.4694 135.169 43.5653 134.774 44.3633 133.99C45.0137 133.351 45.4149 132.497 45.4918 131.587C45.6045 130.264 45.0265 129.039 44.0579 128.267C44.6196 127.101 45.3581 125.793 45.8495 125.339C46.2348 124.999 46.5815 124.923 47.2667 124.798C48.1374 124.639 49.007 124.413 49.9249 123.804C49.8256 126.321 50.2382 129.481 51.7205 133.286C50.8351 134.223 50.4707 135.559 50.7766 136.818C51.2763 138.864 53.3491 140.125 55.4006 139.629C56.0711 139.465 56.6849 139.124 57.1762 138.641C58.1328 137.701 58.5299 136.309 58.2134 135.006C57.9714 134.012 57.3582 133.173 56.4847 132.642C55.718 132.175 54.833 131.995 53.9564 132.122C51.725 126.237 52.3357 122.252 53.1246 120.071C53.1619 119.995 53.1909 119.917 53.2115 119.839C53.508 119.082 53.8169 118.627 53.9983 118.357L52.246 116.574C52.1365 116.708 51.4574 117.453 50.8749 118.966C49.0854 121.914 47.9813 122.12 46.8167 122.333C46.0584 122.472 45.1146 122.644 44.1909 123.462C44.1441 123.504 44.0964 123.548 44.0496 123.594C43.1095 124.518 42.1917 126.315 41.6746 127.438C40.6757 127.441 39.715 127.83 38.9978 128.535C38.3465 129.175 37.9453 130.028 37.8688 130.937C37.7813 131.954 38.0957 132.945 38.754 133.727C39.4132 134.508 40.3372 134.987 41.3543 135.073V135.073ZM55.7796 135.597C55.8901 136.054 55.7556 136.523 55.42 136.853C55.2515 137.019 55.0392 137.136 54.8093 137.193C54.1002 137.363 53.3841 136.93 53.2121 136.223C53.1008 135.767 53.2344 135.297 53.57 134.967C53.739 134.801 53.9521 134.683 54.1851 134.627C54.5266 134.543 54.881 134.598 55.1817 134.781C55.4833 134.965 55.6951 135.254 55.7796 135.597V135.597ZM40.3649 131.149C40.3989 130.747 40.5957 130.476 40.754 130.321C41.0308 130.049 41.4099 129.912 41.7924 129.944C42.5179 130.006 43.0573 130.648 42.9953 131.374C42.9612 131.778 42.7657 132.048 42.6075 132.203C42.3324 132.474 41.9543 132.61 41.5678 132.577C41.2154 132.546 40.8964 132.381 40.6694 132.112C40.4424 131.842 40.3344 131.502 40.3649 131.149Z" fill="#FFFEDB"/>
</svg>
