<svg width="401" height="400" viewBox="0 0 401 400" fill="none" xmlns="http://www.w3.org/2000/svg">
<g filter="url(#filter0_d)">
<rect x="178.222" y="143.847" width="94.1533" height="24.4624" rx="2" transform="rotate(45.4452 178.222 143.847)" fill="url(#paint0_linear)"/>
<path d="M182.103 199.986C182.89 199.211 184.157 199.221 184.932 200.008L218.539 234.142C219.314 234.929 219.304 236.195 218.517 236.97L203.936 251.326C203.149 252.101 201.883 252.092 201.108 251.304L167.5 217.17C166.725 216.383 166.735 215.117 167.522 214.342L182.103 199.986Z" fill="url(#paint1_linear)"/>
<path d="M202.255 120.142C203.042 119.367 204.308 119.377 205.083 120.164L236.834 152.413C237.609 153.2 237.599 154.466 236.812 155.241L222.231 169.597C221.444 170.372 220.178 170.362 219.403 169.575L187.652 137.327C186.877 136.54 186.887 135.274 187.674 134.499L202.255 120.142Z" fill="url(#paint2_linear)"/>
</g>
<g filter="url(#filter1_d)">
<path d="M88.5136 300.471L88.0096 300.435C87.2896 300.435 86.6056 300.147 86.1016 299.643C85.5976 299.139 85.3456 298.455 85.3456 297.807C85.4176 296.439 86.6776 295.359 88.1896 295.395C89.1616 295.431 89.9896 295.899 90.4576 296.691L95.5336 294.135C94.1296 291.615 91.3576 290.067 88.4056 289.959C83.5816 289.815 79.6936 293.235 79.5496 297.627C79.4056 301.983 83.0776 305.691 87.7576 305.871L88.2976 305.907C89.0176 305.907 89.7016 306.195 90.2056 306.699C90.7096 307.239 90.9616 307.887 90.9616 308.535C90.8896 309.903 89.6656 311.019 88.1176 310.947C87.1456 310.911 86.3176 310.443 85.8496 309.651L84.4816 307.239L79.3696 309.867L80.7736 312.207C82.1776 314.727 84.9496 316.275 87.9376 316.383C88.0096 316.383 88.1176 316.383 88.2256 316.383C92.8696 316.383 96.6136 312.999 96.7576 308.715C96.9376 304.323 93.1936 300.615 88.5136 300.471ZM100.814 290.643V296.151H108.59V316.383H114.098V296.151H121.874V290.643H100.814ZM127.25 316.347H132.758V309.399H133.91L138.194 316.383H144.602L139.706 308.643C143.126 307.239 145.538 303.891 145.538 299.967C145.538 294.783 141.326 290.607 136.178 290.607H127.25V316.347ZM132.758 296.115H136.178C138.302 296.115 140.03 297.843 140.03 299.967C140.03 302.091 138.302 303.819 136.178 303.819H132.758V296.115ZM157.658 290.643H152.15V316.383H157.658V290.643ZM182.331 290.643L176.931 300.003L171.351 290.643H164.583L173.511 304.611L164.691 316.383H171.567L176.931 309.219L182.331 316.383H189.243L180.387 304.611L189.207 290.643H182.331ZM228.008 290.643L219.62 299.499L211.232 290.643H206.912L206.732 316.383H212.24L212.384 299.859L219.62 307.491L226.856 299.859L227 316.383H232.508L232.328 290.643H228.008ZM254.828 306.051C254.828 308.715 252.668 310.875 250.004 310.875C247.34 310.875 245.18 308.715 245.18 306.051V290.643H239.672V306.051C239.672 311.739 244.316 316.383 250.004 316.383C255.728 316.383 260.336 311.739 260.336 306.051V290.643H254.828V306.051ZM274.268 300.471L273.764 300.435C273.044 300.435 272.36 300.147 271.856 299.643C271.352 299.139 271.1 298.455 271.1 297.807C271.172 296.439 272.432 295.359 273.944 295.395C274.916 295.431 275.744 295.899 276.212 296.691L281.288 294.135C279.884 291.615 277.112 290.067 274.16 289.959C269.336 289.815 265.448 293.235 265.304 297.627C265.16 301.983 268.832 305.691 273.512 305.871L274.052 305.907C274.772 305.907 275.456 306.195 275.96 306.699C276.464 307.239 276.716 307.887 276.716 308.535C276.644 309.903 275.42 311.019 273.872 310.947C272.9 310.911 272.072 310.443 271.604 309.651L270.236 307.239L265.124 309.867L266.528 312.207C267.932 314.727 270.704 316.275 273.692 316.383C273.764 316.383 273.872 316.383 273.98 316.383C278.624 316.383 282.368 312.999 282.512 308.715C282.692 304.323 278.948 300.615 274.268 300.471ZM294.056 290.643H288.548V316.383H294.056V290.643ZM319.557 308.499C318.117 309.939 316.245 310.731 314.193 310.731C310.053 310.731 306.633 307.311 306.633 303.171C306.633 298.995 310.053 295.575 314.193 295.575C316.209 295.611 318.117 296.331 319.557 297.807L321.573 299.787L325.569 295.791L323.553 293.811C321.105 291.327 317.721 289.923 314.193 289.923C306.921 289.923 300.981 295.863 300.981 303.171C300.981 310.443 306.921 316.383 314.193 316.383C317.757 316.419 321.069 315.015 323.553 312.495L325.569 310.479L321.573 306.483L319.557 308.499Z" fill="url(#paint3_linear)"/>
</g>
<defs>
<filter id="filter0_d" x="150.791" y="111.739" width="103.489" height="153.99" filterUnits="userSpaceOnUse" color-interpolation-filters="sRGB">
<feFlood flood-opacity="0" result="BackgroundImageFix"/>
<feColorMatrix in="SourceAlpha" type="matrix" values="0 0 0 0 0 0 0 0 0 0 0 0 0 0 0 0 0 0 127 0"/>
<feOffset dy="3"/>
<feGaussianBlur stdDeviation="5"/>
<feColorMatrix type="matrix" values="0 0 0 0 0 0 0 0 0 0 0 0 0 0 0 0 0 0 0.45 0"/>
<feBlend mode="normal" in2="BackgroundImageFix" result="effect1_dropShadow"/>
<feBlend mode="normal" in="SourceGraphic" in2="effect1_dropShadow" result="shape"/>
</filter>
<filter id="filter1_d" x="75.3696" y="287.923" width="254.199" height="34.4607" filterUnits="userSpaceOnUse" color-interpolation-filters="sRGB">
<feFlood flood-opacity="0" result="BackgroundImageFix"/>
<feColorMatrix in="SourceAlpha" type="matrix" values="0 0 0 0 0 0 0 0 0 0 0 0 0 0 0 0 0 0 127 0"/>
<feOffset dy="2"/>
<feGaussianBlur stdDeviation="2"/>
<feColorMatrix type="matrix" values="0 0 0 0 0 0 0 0 0 0 0 0 0 0 0 0 0 0 0.25 0"/>
<feBlend mode="normal" in2="BackgroundImageFix" result="effect1_dropShadow"/>
<feBlend mode="normal" in="SourceGraphic" in2="effect1_dropShadow" result="shape"/>
</filter>
<linearGradient id="paint0_linear" x1="224.375" y1="108.121" x2="223.799" y2="205.261" gradientUnits="userSpaceOnUse">
<stop stop-color="#C94EDD"/>
<stop offset="0.710933" stop-color="#AD44E1"/>
</linearGradient>
<linearGradient id="paint1_linear" x1="237.942" y1="153.551" x2="166.436" y2="221.293" gradientUnits="userSpaceOnUse">
<stop stop-color="#CC37E4"/>
<stop offset="1" stop-color="#AD44E1"/>
</linearGradient>
<linearGradient id="paint2_linear" x1="237.942" y1="151.669" x2="165.496" y2="218.471" gradientUnits="userSpaceOnUse">
<stop stop-color="#CC37E4"/>
<stop offset="0.6875" stop-color="#AD44E1"/>
</linearGradient>
<linearGradient id="paint3_linear" x1="101.172" y1="220.139" x2="89.5458" y2="316.531" gradientUnits="userSpaceOnUse">
<stop offset="0.330705" stop-color="#9F9F9F"/>
</linearGradient>
</defs>
</svg>
