<svg width="340" height="119" viewBox="0 0 340 119" fill="none" xmlns="http://www.w3.org/2000/svg">
<g filter="url(#filter0_d_29_117)">
<rect x="146.827" y="25.5782" width="69.6679" height="18.1007" rx="2" transform="rotate(45.4452 146.827 25.5782)" fill="url(#paint0_linear_29_117)"/>
<path d="M149.328 67.4825C150.115 66.7076 151.381 66.7174 152.156 67.5045L176.294 92.0205C177.069 92.8076 177.059 94.0739 176.272 94.8488L166.224 104.742C165.437 105.517 164.171 105.507 163.396 104.72L139.258 80.2038C138.483 79.4167 138.493 78.1504 139.28 77.3755L149.328 67.4825Z" fill="url(#paint1_linear_29_117)"/>
<path d="M164.239 8.40318C165.026 7.62822 166.292 7.63807 167.067 8.42516L189.831 31.5457C190.606 32.3328 190.596 33.5991 189.809 34.3741L179.761 44.267C178.974 45.042 177.708 45.0322 176.933 44.2451L154.169 21.1245C153.394 20.3374 153.404 19.0711 154.191 18.2961L164.239 8.40318Z" fill="url(#paint2_linear_29_117)"/>
</g>
<g filter="url(#filter1_d_29_117)">
<path d="M283.572 94.044L283.32 94.026C282.96 94.026 282.618 93.882 282.366 93.63C282.114 93.378 281.988 93.036 281.988 92.712C282.024 92.028 282.654 91.488 283.41 91.506C283.896 91.524 284.31 91.758 284.544 92.154L287.082 90.876C286.38 89.616 284.994 88.842 283.518 88.788C281.106 88.716 279.162 90.426 279.09 92.622C279.018 94.8 280.854 96.654 283.194 96.744L283.464 96.762C283.824 96.762 284.166 96.906 284.418 97.158C284.67 97.428 284.796 97.752 284.796 98.076C284.76 98.76 284.148 99.318 283.374 99.282C282.888 99.264 282.474 99.03 282.24 98.634L281.556 97.428L279 98.742L279.702 99.912C280.404 101.172 281.79 101.946 283.284 102C283.32 102 283.374 102 283.428 102C285.75 102 287.622 100.308 287.694 98.166C287.784 95.97 285.912 94.116 283.572 94.044ZM300.486 95.574C300.486 92.028 297.606 89.13 294.06 89.13H289.722V102H294.06C297.606 102 300.486 99.12 300.486 95.574ZM292.476 91.884H294.06C296.094 91.884 297.732 93.54 297.732 95.574C297.732 97.59 296.094 99.246 294.06 99.246H292.476V91.884ZM302.184 89.13V102H304.938V99.228L306.72 97.284L310.014 102H313.704L308.772 95.214L313.326 89.13H309.438L304.938 95.34V89.13H302.184Z" fill="url(#paint3_linear_29_117)"/>
</g>
<g filter="url(#filter2_d_29_117)">
<path d="M13.144 59.1673L12.64 59.1313C11.92 59.1313 11.236 58.8433 10.732 58.3393C10.228 57.8353 9.976 57.1513 9.976 56.5033C10.048 55.1353 11.308 54.0553 12.82 54.0913C13.792 54.1273 14.62 54.5953 15.088 55.3873L20.164 52.8313C18.76 50.3113 15.988 48.7633 13.036 48.6553C8.212 48.5113 4.324 51.9313 4.18 56.3233C4.036 60.6793 7.708 64.3873 12.388 64.5673L12.928 64.6033C13.648 64.6033 14.332 64.8913 14.836 65.3953C15.34 65.9353 15.592 66.5833 15.592 67.2313C15.52 68.5993 14.296 69.7153 12.748 69.6433C11.776 69.6073 10.948 69.1393 10.48 68.3473L9.112 65.9353L4 68.5633L5.404 70.9033C6.808 73.4233 9.58 74.9713 12.568 75.0793C12.64 75.0793 12.748 75.0793 12.856 75.0793C17.5 75.0793 21.244 71.6953 21.388 67.4113C21.568 63.0193 17.824 59.3113 13.144 59.1673ZM25.4439 49.3393V54.8473H33.2199V75.0793H38.7279V54.8473H46.5039V49.3393H25.4439ZM51.88 75.0433H57.388V68.0953H58.54L62.824 75.0793H69.232L64.336 67.3393C67.756 65.9353 70.168 62.5873 70.168 58.6633C70.168 53.4793 65.956 49.3033 60.808 49.3033H51.88V75.0433ZM57.388 54.8113H60.808C62.932 54.8113 64.66 56.5393 64.66 58.6633C64.66 60.7873 62.932 62.5153 60.808 62.5153H57.388V54.8113ZM82.2885 49.3393H76.7805V75.0793H82.2885V49.3393ZM106.961 49.3393L101.561 58.6993L95.9811 49.3393H89.2131L98.1411 63.3073L89.3211 75.0793H96.1971L101.561 67.9153L106.961 75.0793H113.873L105.017 63.3073L113.837 49.3393H106.961ZM238.269 49.3393L229.881 58.1953L221.493 49.3393H217.173L216.993 75.0793H222.501L222.645 58.5553L229.881 66.1873L237.117 58.5553L237.261 75.0793H242.769L242.589 49.3393H238.269ZM265.089 64.7473C265.089 67.4113 262.929 69.5713 260.265 69.5713C257.601 69.5713 255.441 67.4113 255.441 64.7473V49.3393H249.933V64.7473C249.933 70.4353 254.577 75.0793 260.265 75.0793C265.989 75.0793 270.597 70.4353 270.597 64.7473V49.3393H265.089V64.7473ZM284.529 59.1673L284.025 59.1313C283.305 59.1313 282.621 58.8433 282.117 58.3393C281.613 57.8353 281.361 57.1513 281.361 56.5033C281.433 55.1353 282.693 54.0553 284.205 54.0913C285.177 54.1273 286.005 54.5953 286.473 55.3873L291.549 52.8313C290.145 50.3113 287.373 48.7633 284.421 48.6553C279.597 48.5113 275.709 51.9313 275.565 56.3233C275.421 60.6793 279.093 64.3873 283.773 64.5673L284.313 64.6033C285.033 64.6033 285.717 64.8913 286.221 65.3953C286.725 65.9353 286.977 66.5833 286.977 67.2313C286.905 68.5993 285.681 69.7153 284.133 69.6433C283.161 69.6073 282.333 69.1393 281.865 68.3473L280.497 65.9353L275.385 68.5633L276.789 70.9033C278.193 73.4233 280.965 74.9713 283.953 75.0793C284.025 75.0793 284.133 75.0793 284.241 75.0793C288.885 75.0793 292.629 71.6953 292.773 67.4113C292.953 63.0193 289.209 59.3113 284.529 59.1673ZM304.317 49.3393H298.809V75.0793H304.317V49.3393ZM329.818 67.1953C328.378 68.6353 326.506 69.4273 324.454 69.4273C320.314 69.4273 316.894 66.0073 316.894 61.8673C316.894 57.6913 320.314 54.2713 324.454 54.2713C326.47 54.3073 328.378 55.0273 329.818 56.5033L331.834 58.4833L335.83 54.4873L333.814 52.5073C331.366 50.0233 327.982 48.6193 324.454 48.6193C317.182 48.6193 311.242 54.5593 311.242 61.8673C311.242 69.1393 317.182 75.0793 324.454 75.0793C328.018 75.1153 331.33 73.7113 333.814 71.1913L335.83 69.1753L331.834 65.1793L329.818 67.1953Z" fill="url(#paint4_linear_29_117)"/>
</g>
<defs>
<filter id="filter0_d_29_117" x="124.757" y="0.828369" width="80.1199" height="117.488" filterUnits="userSpaceOnUse" color-interpolation-filters="sRGB">
<feFlood flood-opacity="0" result="BackgroundImageFix"/>
<feColorMatrix in="SourceAlpha" type="matrix" values="0 0 0 0 0 0 0 0 0 0 0 0 0 0 0 0 0 0 127 0" result="hardAlpha"/>
<feOffset dy="3"/>
<feGaussianBlur stdDeviation="5"/>
<feColorMatrix type="matrix" values="0 0 0 0 0 0 0 0 0 0 0 0 0 0 0 0 0 0 0.45 0"/>
<feBlend mode="normal" in2="BackgroundImageFix" result="effect1_dropShadow_29_117"/>
<feBlend mode="normal" in="SourceGraphic" in2="effect1_dropShadow_29_117" result="shape"/>
</filter>
<filter id="filter1_d_29_117" x="275" y="86.7161" width="42.7041" height="21.2839" filterUnits="userSpaceOnUse" color-interpolation-filters="sRGB">
<feFlood flood-opacity="0" result="BackgroundImageFix"/>
<feColorMatrix in="SourceAlpha" type="matrix" values="0 0 0 0 0 0 0 0 0 0 0 0 0 0 0 0 0 0 127 0" result="hardAlpha"/>
<feOffset dy="2"/>
<feGaussianBlur stdDeviation="2"/>
<feColorMatrix type="matrix" values="0 0 0 0 0 0 0 0 0 0 0 0 0 0 0 0 0 0 0.25 0"/>
<feBlend mode="normal" in2="BackgroundImageFix" result="effect1_dropShadow_29_117"/>
<feBlend mode="normal" in="SourceGraphic" in2="effect1_dropShadow_29_117" result="shape"/>
</filter>
<filter id="filter2_d_29_117" x="0" y="46.5114" width="339.83" height="34.6039" filterUnits="userSpaceOnUse" color-interpolation-filters="sRGB">
<feFlood flood-opacity="0" result="BackgroundImageFix"/>
<feColorMatrix in="SourceAlpha" type="matrix" values="0 0 0 0 0 0 0 0 0 0 0 0 0 0 0 0 0 0 127 0" result="hardAlpha"/>
<feOffset dy="2"/>
<feGaussianBlur stdDeviation="2"/>
<feColorMatrix type="matrix" values="0 0 0 0 0 0 0 0 0 0 0 0 0 0 0 0 0 0 0.25 0"/>
<feBlend mode="normal" in2="BackgroundImageFix" result="effect1_dropShadow_29_117"/>
<feBlend mode="normal" in="SourceGraphic" in2="effect1_dropShadow_29_117" result="shape"/>
</filter>
<linearGradient id="paint0_linear_29_117" x1="180.977" y1="-0.856862" x2="180.551" y2="71.0208" gradientUnits="userSpaceOnUse">
<stop stop-color="#C94EDD"/>
<stop offset="0.710933" stop-color="#AD44E1"/>
</linearGradient>
<linearGradient id="paint1_linear_29_117" x1="191.016" y1="32.7586" x2="138.106" y2="82.8838" gradientUnits="userSpaceOnUse">
<stop stop-color="#CC37E4"/>
<stop offset="1" stop-color="#AD44E1"/>
</linearGradient>
<linearGradient id="paint2_linear_29_117" x1="191.016" y1="31.3664" x2="137.41" y2="80.7953" gradientUnits="userSpaceOnUse">
<stop stop-color="#CC37E4"/>
<stop offset="0.6875" stop-color="#AD44E1"/>
</linearGradient>
<linearGradient id="paint3_linear_29_117" x1="282.227" y1="53.3777" x2="265.139" y2="95.3121" gradientUnits="userSpaceOnUse">
<stop offset="0.330705" stop-color="#9F9F9F"/>
</linearGradient>
<linearGradient id="paint4_linear_29_117" x1="33.3025" y1="-21.1652" x2="24.5963" y2="75.8477" gradientUnits="userSpaceOnUse">
<stop offset="0.330705" stop-color="#9F9F9F"/>
</linearGradient>
</defs>
</svg>
