<svg viewBox="0 0 94 150" fill="none" xmlns="http://www.w3.org/2000/svg">
<path d="M64.8156 129.362C65.5905 130.149 65.5807 131.415 64.7936 132.19L48.1302 148.597C47.3431 149.372 46.0768 149.362 45.3019 148.575L7.34265 110.022C6.56769 109.235 6.57752 107.968 7.36462 107.193L24.0289 90.786C24.816 90.011 26.0823 90.0208 26.8573 90.808L64.8156 129.362ZM45.3342 144.332C46.1091 145.119 47.3754 145.129 48.1625 144.354L58.9798 133.704C59.6046 133.088 59.1916 132.024 58.3155 131.992L34.7435 131.112C33.8389 131.079 33.3586 132.168 33.9936 132.813L45.3342 144.332ZM31.5024 126.302C30.8777 126.917 31.2906 127.981 32.1667 128.014L57.7965 128.971C58.7011 129.005 59.1815 127.916 58.5464 127.27L46.1542 114.683C45.3792 113.896 44.1129 113.886 43.3258 114.661L31.5024 126.302ZM27.6453 121.157C27.6834 122.91 29.7985 123.769 31.048 122.539L41.2212 112.523C42.0083 111.748 42.0182 110.482 41.2431 109.695L28.8501 97.109C28.215 96.464 27.1181 96.9274 27.1378 97.8324L27.6453 121.157ZM11.6076 107.226C10.8206 108.001 10.8108 109.267 11.5857 110.054L21.1581 119.776C22.4283 121.067 24.6222 120.14 24.5828 118.33L24.1246 97.2666C24.1055 96.3901 23.048 95.9607 22.4232 96.5758L11.6076 107.226ZM92.0607 101.791C92.8356 102.578 92.8258 103.844 92.0386 104.619L75.3744 121.026C74.5873 121.8 73.321 121.791 72.5461 121.003L1.40318 48.7464C0.628224 47.9593 0.638061 46.693 1.42515 45.9181L18.0895 29.5106C18.8766 28.7356 20.1429 28.7455 20.9178 29.5326L92.0607 101.791ZM60.0767 101.212C59.2895 101.987 59.2797 103.253 60.0547 104.04L69.3041 113.434C70.5412 114.691 72.6809 113.848 72.7285 112.085L73.2419 93.0798C73.2906 91.2801 71.1225 90.3375 69.8396 91.6006L60.0767 101.212ZM75.7414 111.624C75.6928 113.424 77.8608 114.366 79.1438 113.103L87.7954 104.586C88.5826 103.811 88.5924 102.544 87.8175 101.757L79.6208 93.4322C78.3836 92.1756 76.2439 93.0186 76.1963 94.7813L75.7414 111.624ZM44.9475 86.2834C44.0659 86.2936 43.6278 87.3567 44.2464 87.985L55.8453 99.7649C56.2328 100.158 56.8659 100.163 57.2594 99.7759L69.5031 87.7215C70.1446 87.0899 69.6902 85.9986 68.79 86.009L44.9475 86.2834ZM44.2162 79.8498C42.9333 81.113 43.8421 83.2956 45.6425 83.2748L67.0019 83.0289C67.8834 83.0188 68.3215 81.9557 67.7029 81.3274L56.8065 70.2601C56.0316 69.473 54.7652 69.4632 53.9781 70.2382L44.2162 79.8498ZM26.4602 67.5062C25.5786 67.5163 25.1405 68.5795 25.759 69.2077L36.6564 80.2759C37.4313 81.063 38.6976 81.0729 39.4847 80.2979L51.015 68.945C51.6565 68.3134 51.2021 67.2222 50.3019 67.2325L26.4602 67.5062ZM23.9606 62.8137C23.3191 63.4452 23.7735 64.5365 24.6737 64.5262L46.1656 64.2795C47.9288 64.2592 48.8049 62.1329 47.5678 60.8764L38.3192 51.4828C37.5443 50.6957 36.2779 50.6858 35.4908 51.4608L23.9606 62.8137ZM20.2209 57.4559C20.1723 59.2557 22.3404 60.1983 23.6234 58.9351L33.3862 49.3232C34.1734 48.5482 34.1832 47.2818 33.4081 46.4947L24.1587 37.1016C22.9216 35.8452 20.782 36.6882 20.7344 38.4508L20.2209 57.4559ZM5.66734 45.9503C4.88025 46.7253 4.87041 47.9915 5.64536 48.7786L13.8421 57.1039C15.0792 58.3604 17.2189 57.5174 17.2665 55.7547L17.7215 38.9112C17.7701 37.1115 15.602 36.1689 14.319 37.4321L5.66734 45.9503ZM85.2961 37.8668C86.071 38.6539 86.0612 39.9202 85.2741 40.6952L68.6107 57.1025C67.8236 57.8775 66.5573 57.8677 65.7823 57.0806L29.9022 20.638C29.1272 19.8509 29.1371 18.5847 29.9242 17.8097L46.5875 1.40318C47.3746 0.628226 48.6409 0.638059 49.4159 1.42515L85.2961 37.8668ZM68.7312 47.9873C68.7233 49.7659 70.867 50.6691 72.1344 49.4213L81.0309 40.6619C81.818 39.887 81.8279 38.6207 81.0529 37.8336L72.2348 28.877C70.9824 27.605 68.8175 28.4863 68.8096 30.2713L68.7312 47.9873ZM52.4563 36.42C51.6693 37.195 51.6595 38.4613 52.4344 39.2483L62.3062 49.2744C63.5586 50.5464 65.7235 49.6651 65.7313 47.88L65.8187 28.0479C65.8265 26.2693 63.6828 25.366 62.4155 26.6139L52.4563 36.42ZM47.5235 34.2603C48.2985 35.0474 49.5648 35.0572 50.3519 34.2822L62.0224 22.7911C62.656 22.1672 62.2211 21.0886 61.3319 21.0786L36.6737 20.8034C35.7812 20.7935 35.3237 21.8689 35.9499 22.5049L47.5235 34.2603ZM35.9455 16.0907C35.3118 16.7146 35.7467 17.7933 36.6359 17.8032L59.1798 18.0549C60.0723 18.0649 60.5298 16.9894 59.9036 16.3534L48.6811 4.95479C48.2936 4.56123 47.6604 4.55631 47.2669 4.94379L35.9455 16.0907Z" fill="#B3B3B3"/>
</svg>
