<svg width="auto" height="auto" preserveAspectRatio="xMinYMin meet" viewBox="0 0 65 85" fill="none" xmlns="http://www.w3.org/2000/svg">
<path d="M43.8518 1H3.03226C1.90984 1 1 1.90984 1 3.03226V82.2903C1 83.4128 1.90984 84.3226 3.03226 84.3226H61.9678C63.0902 84.3226 64 83.4128 64 82.2903V21.1482C64 20.6093 63.7859 20.0924 63.4048 19.7112L45.2888 1.59525C44.9077 1.2141 44.3908 1 43.8518 1Z" fill="url(#paint0_linear)" stroke="#CCCCCC" stroke-width="0.555484" stroke-miterlimit="10"/>
<path d="M43.6774 1V19.2903C43.6774 20.4127 44.5873 21.3226 45.7097 21.3226H64" fill="url(#paint1_linear)"/>
<path d="M43.6774 1V19.2903C43.6774 20.4127 44.5873 21.3226 45.7097 21.3226H64" stroke="#CCCCCC" stroke-width="0.555484" stroke-miterlimit="10"/>
<defs>
<linearGradient id="paint0_linear" x1="64" y1="1" x2="-16.1688" y2="61.6155" gradientUnits="userSpaceOnUse">
<stop stop-color="#9E18B4"/>
<stop offset="1" stop-color="#B24FE3"/>
</linearGradient>
<linearGradient id="paint1_linear" x1="64" y1="1" x2="43.6774" y2="21.3226" gradientUnits="userSpaceOnUse">
<stop stop-color="#9E18B4"/>
<stop offset="1" stop-color="#B24FE3"/>
</linearGradient>
</defs>
</svg>
