<svg viewBox="0 0 672 375" fill="none" xmlns="http://www.w3.org/2000/svg">
<g filter="url(#filter0_d)">
<path d="M379.126 212.683L311.375 143.87C310.6 143.083 309.334 143.073 308.547 143.848L292.778 159.374C291.991 160.149 291.981 161.415 292.756 162.202L360.507 231.014C361.282 231.802 362.549 231.811 363.336 231.036L379.104 215.511C379.892 214.736 379.901 213.47 379.126 212.683Z" fill="url(#paint0_linear)"/>
<path d="M314.215 202.313C315.002 201.538 316.268 201.548 317.043 202.335L353.132 238.989C353.907 239.776 353.897 241.042 353.11 241.817L337.341 257.343C336.554 258.118 335.288 258.108 334.513 257.321L298.424 220.667C297.649 219.88 297.659 218.613 298.446 217.838L314.215 202.313Z" fill="url(#paint1_linear)"/>
<path d="M335.74 117.03C336.527 116.255 337.793 116.265 338.568 117.052L372.673 151.691C373.448 152.478 373.438 153.745 372.651 154.52L356.883 170.045C356.096 170.82 354.829 170.81 354.054 170.023L319.949 135.384C319.174 134.596 319.184 133.33 319.971 132.555L335.74 117.03Z" fill="url(#paint2_linear)"/>
</g>
<g filter="url(#filter1_d)">
<path d="M102.688 176.438C106.458 175.792 110.125 175.469 113.688 175.469C120.604 175.469 125.385 176.75 128.031 179.312C130.677 181.875 132 185.802 132 191.094V209H126.031V192.688C126.031 189.375 125.646 186.948 124.875 185.406C124.104 183.844 122.771 182.667 120.875 181.875C119 181.062 116.26 180.656 112.656 180.656C109.823 180.656 106.667 180.948 103.188 181.531L102.688 176.438ZM109.031 190.312V209H103.062V190.312H109.031ZM141.25 175.844H168.312V184.094C168.312 186.448 168.094 188.344 167.656 189.781C167.24 191.198 166.479 192.656 165.375 194.156L163.719 196.406C162.01 198.698 161.156 201.125 161.156 203.688V209H155.188V204.531C155.188 202.26 155.385 200.427 155.781 199.031C156.198 197.615 157.052 196.094 158.344 194.469L160.188 192.094C161.083 190.948 161.667 189.917 161.938 189C162.229 188.062 162.375 186.833 162.375 185.312V180.844H141.25V175.844ZM141.75 221.75V190.312H147.469V221.75H141.75ZM182.688 175.844V193H176.594V175.844H182.688ZM190.375 192.562C190.375 187.271 191.792 183.01 194.625 179.781C197.479 176.552 201.25 174.938 205.938 174.938C208.729 174.938 211.25 175.552 213.5 176.781C215.75 177.99 217.646 179.927 219.188 182.594C220.729 185.26 221.5 188.583 221.5 192.562C221.5 195.833 220.917 198.76 219.75 201.344C218.583 203.927 216.823 206.01 214.469 207.594C212.115 209.177 209.271 209.969 205.938 209.969C201.25 209.969 197.479 208.385 194.625 205.219C191.792 202.031 190.375 197.812 190.375 192.562ZM196.906 192.562C196.906 196.479 197.698 199.531 199.281 201.719C200.865 203.885 203.083 204.969 205.938 204.969C209.021 204.969 211.302 203.792 212.781 201.438C214.281 199.083 215.031 196.104 215.031 192.5C215.031 188.5 214.229 185.385 212.625 183.156C211.021 180.927 208.792 179.812 205.938 179.812C202.917 179.812 200.656 181.021 199.156 183.438C197.656 185.833 196.906 188.875 196.906 192.562ZM235.25 175.844V209H229.156V175.844H235.25ZM247.75 189.688L242.625 175.844H248.469L250.906 183.156C251.885 181.01 253.417 179.198 255.5 177.719C257.583 176.219 259.823 175.469 262.219 175.469C264.76 175.469 266.948 176.125 268.781 177.438C270.635 178.729 271.979 180.625 272.812 183.125C273.646 185.625 274.062 189.385 274.062 194.406V209H256.969V204H268.031V194.281C268.031 190.615 267.906 187.948 267.656 186.281C267.427 184.594 266.812 183.229 265.812 182.188C264.833 181.125 263.594 180.594 262.094 180.594C259.76 180.594 257.771 181.802 256.125 184.219C254.5 186.615 253.115 190.781 251.969 196.719L249.625 209H243.594L246.219 196.062C246.469 194.833 246.979 192.708 247.75 189.688Z" fill="#D2D2D2"/>
</g>
<g filter="url(#filter2_d)">
<path d="M395.812 192.562C395.812 187.271 397.229 183.01 400.062 179.781C402.917 176.552 406.688 174.938 411.375 174.938C414.167 174.938 416.688 175.552 418.938 176.781C421.188 177.99 423.083 179.927 424.625 182.594C426.167 185.26 426.938 188.583 426.938 192.562C426.938 195.833 426.354 198.76 425.188 201.344C424.021 203.927 422.26 206.01 419.906 207.594C417.552 209.177 414.708 209.969 411.375 209.969C406.688 209.969 402.917 208.385 400.062 205.219C397.229 202.031 395.812 197.812 395.812 192.562ZM402.344 192.562C402.344 196.479 403.135 199.531 404.719 201.719C406.302 203.885 408.521 204.969 411.375 204.969C414.458 204.969 416.74 203.792 418.219 201.438C419.719 199.083 420.469 196.104 420.469 192.5C420.469 188.5 419.667 185.385 418.062 183.156C416.458 180.927 414.229 179.812 411.375 179.812C408.354 179.812 406.094 181.021 404.594 183.438C403.094 185.833 402.344 188.875 402.344 192.562ZM434.438 175.844H461.5V184.094C461.5 186.448 461.281 188.344 460.844 189.781C460.427 191.198 459.667 192.656 458.562 194.156L456.906 196.406C455.198 198.698 454.344 201.125 454.344 203.688V209H448.375V204.531C448.375 202.26 448.573 200.427 448.969 199.031C449.385 197.615 450.24 196.094 451.531 194.469L453.375 192.094C454.271 190.948 454.854 189.917 455.125 189C455.417 188.062 455.562 186.833 455.562 185.312V180.844H434.438V175.844ZM434.938 221.75V190.312H440.656V221.75H434.938ZM475.875 175.844V193H469.781V175.844H475.875ZM482 176.156C485.208 175.698 488.156 175.469 490.844 175.469C497.552 175.469 502.219 176.771 504.844 179.375C507.49 181.958 508.812 185.865 508.812 191.094V209H502.875V192.688C502.875 189.667 502.552 187.385 501.906 185.844C501.26 184.302 500.021 183.052 498.188 182.094C496.354 181.135 493.792 180.656 490.5 180.656C488.271 180.656 485.604 180.865 482.5 181.281L482 176.156ZM517.75 175.844H523.719V193.062C523.719 197.958 524.615 201.188 526.406 202.75C528.219 204.312 530.24 205.094 532.469 205.094C534.844 205.094 536.719 204.542 538.094 203.438C539.49 202.333 540.396 200.896 540.812 199.125C541.229 197.354 541.438 194.969 541.438 191.969V187.75C541.438 182.896 540.031 180.469 537.219 180.469C535.24 180.469 533.427 181.573 531.781 183.781L529.906 180.719C532.156 177.01 535.021 175.156 538.5 175.156C541.417 175.156 543.625 176.302 545.125 178.594C546.625 180.885 547.375 184.24 547.375 188.656V191.031C547.375 195.323 546.958 198.677 546.125 201.094C545.312 203.51 543.74 205.583 541.406 207.312C539.094 209.042 536.115 209.906 532.469 209.906C529.26 209.906 526.469 209.115 524.094 207.531C521.74 205.948 520.094 203.948 519.156 201.531C518.219 199.115 517.75 195.74 517.75 191.406V175.844ZM553.938 192.562C553.938 187.271 555.354 183.01 558.188 179.781C561.042 176.552 564.812 174.938 569.5 174.938C572.292 174.938 574.812 175.552 577.062 176.781C579.312 177.99 581.208 179.927 582.75 182.594C584.292 185.26 585.062 188.583 585.062 192.562C585.062 195.833 584.479 198.76 583.312 201.344C582.146 203.927 580.385 206.01 578.031 207.594C575.677 209.177 572.833 209.969 569.5 209.969C564.812 209.969 561.042 208.385 558.188 205.219C555.354 202.031 553.938 197.812 553.938 192.562ZM560.469 192.562C560.469 196.479 561.26 199.531 562.844 201.719C564.427 203.885 566.646 204.969 569.5 204.969C572.583 204.969 574.865 203.792 576.344 201.438C577.844 199.083 578.594 196.104 578.594 192.5C578.594 188.5 577.792 185.385 576.188 183.156C574.583 180.927 572.354 179.812 569.5 179.812C566.479 179.812 564.219 181.021 562.719 183.438C561.219 185.833 560.469 188.875 560.469 192.562Z" fill="#D2D2D2"/>
</g>
<defs>
<filter id="filter0_d" x="281.353" y="109.455" width="109.177" height="161.463" filterUnits="userSpaceOnUse" color-interpolation-filters="sRGB">
<feFlood flood-opacity="0" result="BackgroundImageFix"/>
<feColorMatrix in="SourceAlpha" type="matrix" values="0 0 0 0 0 0 0 0 0 0 0 0 0 0 0 0 0 0 127 0"/>
<feOffset dy="3"/>
<feGaussianBlur stdDeviation="5"/>
<feColorMatrix type="matrix" values="0 0 0 0 0 0 0 0 0 0 0 0 0 0 0 0 0 0 0.45 0"/>
<feBlend mode="normal" in2="BackgroundImageFix" result="effect1_dropShadow"/>
<feBlend mode="normal" in="SourceGraphic" in2="effect1_dropShadow" result="shape"/>
</filter>
<filter id="filter1_d" x="98.6875" y="174.938" width="179.375" height="54.8125" filterUnits="userSpaceOnUse" color-interpolation-filters="sRGB">
<feFlood flood-opacity="0" result="BackgroundImageFix"/>
<feColorMatrix in="SourceAlpha" type="matrix" values="0 0 0 0 0 0 0 0 0 0 0 0 0 0 0 0 0 0 127 0"/>
<feOffset dy="4"/>
<feGaussianBlur stdDeviation="2"/>
<feColorMatrix type="matrix" values="0 0 0 0 0 0 0 0 0 0 0 0 0 0 0 0 0 0 0.25 0"/>
<feBlend mode="normal" in2="BackgroundImageFix" result="effect1_dropShadow"/>
<feBlend mode="normal" in="SourceGraphic" in2="effect1_dropShadow" result="shape"/>
</filter>
<filter id="filter2_d" x="391.812" y="174.938" width="197.25" height="54.8125" filterUnits="userSpaceOnUse" color-interpolation-filters="sRGB">
<feFlood flood-opacity="0" result="BackgroundImageFix"/>
<feColorMatrix in="SourceAlpha" type="matrix" values="0 0 0 0 0 0 0 0 0 0 0 0 0 0 0 0 0 0 127 0"/>
<feOffset dy="4"/>
<feGaussianBlur stdDeviation="2"/>
<feColorMatrix type="matrix" values="0 0 0 0 0 0 0 0 0 0 0 0 0 0 0 0 0 0 0.25 0"/>
<feBlend mode="normal" in2="BackgroundImageFix" result="effect1_dropShadow"/>
<feBlend mode="normal" in="SourceGraphic" in2="effect1_dropShadow" result="shape"/>
</filter>
<linearGradient id="paint0_linear" x1="371.75" y1="150.8" x2="297.383" y2="223.158" gradientUnits="userSpaceOnUse">
<stop stop-color="#C94EDD"/>
<stop offset="0.710933" stop-color="#AD44E1"/>
</linearGradient>
<linearGradient id="paint1_linear" x1="373.761" y1="152.81" x2="297.383" y2="225.167" gradientUnits="userSpaceOnUse">
<stop stop-color="#CC37E4"/>
<stop offset="1" stop-color="#AD44E1"/>
</linearGradient>
<linearGradient id="paint2_linear" x1="373.761" y1="150.8" x2="296.379" y2="222.153" gradientUnits="userSpaceOnUse">
<stop stop-color="#CC37E4"/>
<stop offset="0.6875" stop-color="#AD44E1"/>
</linearGradient>
</defs>
</svg>
