<svg viewBox="0 0 94 150" fill="none" xmlns="http://www.w3.org/2000/svg">
<mask id="path-1-inside-1" fill="white">
<path d="M19.5142 28.1078L38.0016 46.8848L56.489 65.6618L74.9764 84.4388L93.4639 103.216L73.9497 122.429L55.4623 103.652L36.9748 84.875L18.4874 66.098L0 47.321L19.5142 28.1078Z"/>
<path d="M25.4541 89.3832L26.3224 90.2651L45.8366 110.085L66.219 130.787L46.7048 150L26.3224 129.298L5.93994 108.596L25.4541 89.3832Z"/>
<path d="M48.013 0L67.3562 19.6461L86.6993 39.2923L67.1851 58.5055L47.842 38.8594L28.4988 19.2132L48.013 0Z"/>
</mask>
<path d="M20.5138 28.1348C20.5287 27.5827 20.0933 27.1231 19.5412 27.1082C18.9891 27.0932 18.5295 27.5287 18.5145 28.0808L20.5138 28.1348ZM72.95 122.402C72.9351 122.954 73.3706 123.414 73.9227 123.429C74.4747 123.444 74.9344 123.008 74.9493 122.456L72.95 122.402ZM56.489 65.6618L57.1906 66.3744C57.4813 66.0882 57.569 65.654 57.4122 65.2774C57.2554 64.9008 56.8855 64.6572 56.4775 64.6619L56.489 65.6618ZM74.9764 84.4388L75.9761 84.4658C75.9834 84.194 75.8798 83.931 75.689 83.7372C75.4983 83.5435 75.2368 83.4358 74.965 83.4389L74.9764 84.4388ZM36.9748 84.875L36.2732 84.1624C35.9825 84.4487 35.8948 84.8828 36.0517 85.2594C36.2085 85.636 36.5784 85.8796 36.9863 85.875L36.9748 84.875ZM18.4874 66.098L17.4878 66.071C17.4804 66.3428 17.5841 66.6059 17.7748 66.7996C17.9656 66.9934 18.227 67.1011 18.4989 67.0979L18.4874 66.098ZM38.7032 47.5974C39.0967 47.2099 39.1017 46.5768 38.7142 46.1832C38.3267 45.7897 37.6936 45.7847 37.3 46.1722L38.7032 47.5974ZM54.7607 102.939C54.3671 103.327 54.3622 103.96 54.7497 104.354C55.1372 104.747 55.7703 104.752 56.1639 104.365L54.7607 102.939ZM26.3224 129.298H25.3224V130.262L26.2851 130.297L26.3224 129.298ZM67.3562 19.6461L68.3562 19.6505L68.3605 18.6573L67.3673 18.6462L67.3562 19.6461ZM73.9768 84.4118L72.95 122.402L74.9493 122.456L75.9761 84.4658L73.9768 84.4118ZM74.965 83.4389L36.9634 83.8751L36.9863 85.875L74.9879 85.4387L74.965 83.4389ZM37.6764 85.5876L57.1906 66.3744L55.7874 64.9492L36.2732 84.1624L37.6764 85.5876ZM18.4989 67.0979L56.5005 66.6617L56.4775 64.6619L18.4759 65.0981L18.4989 67.0979ZM19.4871 66.125L20.5138 28.1348L18.5145 28.0808L17.4878 66.071L19.4871 66.125ZM19.189 66.8106L38.7032 47.5974L37.3 46.1722L17.7858 65.3854L19.189 66.8106ZM56.1639 104.365L75.678 85.1514L74.2748 83.7262L54.7607 102.939L56.1639 104.365ZM27.024 130.011L46.5382 110.798L45.135 109.372L25.6208 128.586L27.024 130.011ZM26.2851 130.297L66.1817 131.786L66.2563 129.787L26.3597 128.299L26.2851 130.297ZM27.3224 129.298V90.2651H25.3224V129.298H27.3224ZM66.3562 19.6417L66.1851 58.5011L68.1851 58.5099L68.3562 19.6505L66.3562 19.6417ZM67.3673 18.6462L28.51 18.2133L28.4877 20.2132L67.345 20.6461L67.3673 18.6462ZM66.6546 18.9336L47.1404 38.1468L48.5436 39.5719L68.0578 20.3587L66.6546 18.9336ZM19.5142 28.1078L20.9393 26.7046C20.5672 26.3266 20.0601 26.112 19.5297 26.1078C18.9993 26.1037 18.489 26.3105 18.111 26.6826L19.5142 28.1078ZM93.4639 103.216L94.867 104.641C95.245 104.269 95.4597 103.762 95.4638 103.231C95.4679 102.701 95.2612 102.191 94.889 101.813L93.4639 103.216ZM73.9497 122.429L72.5245 123.832C72.8967 124.21 73.4037 124.425 73.9341 124.429C74.4646 124.433 74.9749 124.226 75.3529 123.854L73.9497 122.429ZM0 47.321L-1.40318 45.8959C-1.78116 46.268 -1.99582 46.7751 -1.99994 47.3055C-2.00406 47.8359 -1.79731 48.3462 -1.42516 48.7242L0 47.321ZM56.489 65.6618L55.0639 67.065L56.489 65.6618ZM74.9764 84.4388L73.5513 85.842L74.9764 84.4388ZM36.9748 84.875L35.5497 86.2782L36.9748 84.875ZM18.4874 66.098L19.9126 64.6948L18.4874 66.098ZM55.4623 103.652L56.8874 102.249L55.4623 103.652ZM25.4541 89.3832L26.8793 87.9801L25.4761 86.5549L24.0509 87.9581L25.4541 89.3832ZM66.219 130.787L67.6222 132.212L69.0473 130.809L67.6442 129.383L66.219 130.787ZM46.7048 150L45.2797 151.403L46.6828 152.828L48.108 151.425L46.7048 150ZM5.93994 108.596L4.53676 107.171L3.1116 108.574L4.51478 110L5.93994 108.596ZM26.3224 129.298L24.8972 130.701H24.8972L26.3224 129.298ZM45.8366 110.085L47.2617 108.682L45.8366 110.085ZM26.3224 90.2651L27.7475 88.8619H27.7475L26.3224 90.2651ZM48.013 0L49.4382 -1.40318L48.035 -2.82834L46.6098 -1.42516L48.013 0ZM86.6993 39.2923L88.1025 40.7174L89.5276 39.3143L88.1245 37.8891L86.6993 39.2923ZM67.1851 58.5055L65.76 59.9087L67.1631 61.3338L68.5883 59.9307L67.1851 58.5055ZM28.4988 19.2132L27.0957 17.7881L25.6705 19.1912L27.0737 20.6164L28.4988 19.2132ZM67.3562 19.6461L65.931 21.0493L67.3562 19.6461ZM47.842 38.8594L49.2671 37.4562V37.4562L47.842 38.8594ZM92.0607 101.791L72.5465 121.004L75.3529 123.854L94.867 104.641L92.0607 101.791ZM1.40318 48.7462L20.9174 29.5329L18.111 26.6826L-1.40318 45.8959L1.40318 48.7462ZM55.0639 67.065L73.5513 85.842L76.4016 83.0356L57.9142 64.2586L55.0639 67.065ZM73.5513 85.842L92.0387 104.619L94.889 101.813L76.4016 83.0356L73.5513 85.842ZM38.4 83.4718L19.9126 64.6948L17.0623 67.5012L35.5497 86.2782L38.4 83.4718ZM19.9126 64.6948L1.42516 45.9178L-1.42516 48.7242L17.0623 67.5012L19.9126 64.6948ZM18.089 29.511L36.5764 48.288L39.4268 45.4816L20.9393 26.7046L18.089 29.511ZM36.5764 48.288L55.0639 67.065L57.9142 64.2586L39.4268 45.4816L36.5764 48.288ZM75.3748 121.026L56.8874 102.249L54.0371 105.055L72.5245 123.832L75.3748 121.026ZM56.8874 102.249L38.4 83.4718L35.5497 86.2782L54.0371 105.055L56.8874 102.249ZM64.8158 129.362L45.3016 148.575L48.108 151.425L67.6222 132.212L64.8158 129.362ZM7.34312 110.022L26.8573 90.8084L24.0509 87.9581L4.53676 107.171L7.34312 110.022ZM48.13 148.597L27.7475 127.895L24.8972 130.701L45.2797 151.403L48.13 148.597ZM27.7475 127.895L7.3651 107.193L4.51478 110L24.8972 130.701L27.7475 127.895ZM44.4114 111.488L64.7938 132.19L67.6442 129.383L47.2617 108.682L44.4114 111.488ZM24.029 90.7864L24.8972 91.6683L27.7475 88.8619L26.8793 87.9801L24.029 90.7864ZM24.8972 91.6683L44.4114 111.488L47.2617 108.682L27.7475 88.8619L24.8972 91.6683ZM85.2961 37.8671L65.7819 57.0803L68.5883 59.9307L88.1025 40.7174L85.2961 37.8671ZM29.902 20.6384L49.4162 1.42516L46.6098 -1.42516L27.0957 17.7881L29.902 20.6384ZM46.5879 1.40318L65.931 21.0493L68.7813 18.243L49.4382 -1.40318L46.5879 1.40318ZM65.931 21.0493L85.2741 40.6955L88.1245 37.8891L68.7813 18.243L65.931 21.0493ZM68.6103 57.1023L49.2671 37.4562L46.4168 40.2625L65.76 59.9087L68.6103 57.1023ZM49.2671 37.4562L29.924 17.81L27.0737 20.6164L46.4168 40.2625L49.2671 37.4562Z" fill="url(#paint0_linear)" mask="url(#path-1-inside-1)"/>
<defs>
<linearGradient id="paint0_linear" x1="87" y1="29" x2="7.50005" y2="111.5" gradientUnits="userSpaceOnUse">
<stop stop-color="#F10EA0"/>
<stop offset="1" stop-color="#E95214"/>
</linearGradient>
</defs>
</svg>
