<svg viewBox="0 0 94 150" fill="none" xmlns="http://www.w3.org/2000/svg">
<mask id="path-1-inside-1" fill="white">
<path d="M19.5142 28.1078L38.0016 46.8848L56.489 65.6618L74.9764 84.4388L93.4639 103.216L73.9497 122.429L55.4623 103.652L36.9748 84.875L18.4874 66.098L0 47.321L19.5142 28.1078Z"/>
<path d="M25.4541 89.3832L26.3224 90.2651L45.8366 110.085L66.219 130.787L46.7048 150L26.3224 129.298L5.93994 108.596L25.4541 89.3832Z"/>
<path d="M48.013 0L67.3562 19.6461L86.6993 39.2923L67.1851 58.5055L47.842 38.8594L28.4988 19.2132L48.013 0Z"/>
</mask>
<path d="M20.014 28.1213C20.0215 27.8453 19.8037 27.6154 19.5277 27.608C19.2516 27.6005 19.0218 27.8182 19.0144 28.0943L20.014 28.1213ZM73.4499 122.416C73.4424 122.692 73.6601 122.921 73.9362 122.929C74.2122 122.936 74.442 122.719 74.4495 122.443L73.4499 122.416ZM56.489 65.6618L56.8398 66.0181C56.9852 65.875 57.029 65.6579 56.9506 65.4696C56.8722 65.2813 56.6872 65.1595 56.4833 65.1618L56.489 65.6618ZM74.9764 84.4388L75.4763 84.4523C75.4799 84.3164 75.4281 84.1849 75.3327 84.088C75.2374 83.9911 75.1066 83.9373 74.9707 83.9388L74.9764 84.4388ZM36.9748 84.875L36.624 84.5187C36.4787 84.6618 36.4348 84.8789 36.5133 85.0672C36.5917 85.2555 36.7766 85.3773 36.9806 85.375L36.9748 84.875ZM18.4874 66.098L17.9876 66.0845C17.9839 66.2204 18.0358 66.3519 18.1311 66.4488C18.2265 66.5457 18.3572 66.5995 18.4932 66.598L18.4874 66.098ZM38.3524 47.2411C38.5492 47.0473 38.5516 46.7308 38.3579 46.534C38.1641 46.3372 37.8476 46.3348 37.6508 46.5285L38.3524 47.2411ZM55.1115 103.296C54.9147 103.489 54.9122 103.806 55.106 104.003C55.2997 104.2 55.6163 104.202 55.8131 104.008L55.1115 103.296ZM26.3224 129.298H25.8224V129.78L26.3037 129.798L26.3224 129.298ZM67.3562 19.6461L67.8562 19.6483L67.8583 19.1517L67.3617 19.1462L67.3562 19.6461ZM74.4766 84.4253L73.4499 122.416L74.4495 122.443L75.4763 84.4523L74.4766 84.4253ZM74.9707 83.9388L36.9691 84.3751L36.9806 85.375L74.9822 84.9388L74.9707 83.9388ZM37.3256 85.2313L56.8398 66.0181L56.1382 65.3055L36.624 84.5187L37.3256 85.2313ZM18.4932 66.598L56.4948 66.1618L56.4833 65.1618L18.4817 65.598L18.4932 66.598ZM18.9872 66.1115L20.014 28.1213L19.0144 28.0943L17.9876 66.0845L18.9872 66.1115ZM18.8382 66.4543L38.3524 47.2411L37.6508 46.5285L18.1366 65.7417L18.8382 66.4543ZM55.8131 104.008L75.3272 84.7951L74.6256 84.0825L55.1115 103.296L55.8131 104.008ZM26.6732 129.654L46.1874 110.441L45.4858 109.729L25.9716 128.942L26.6732 129.654ZM26.3037 129.798L66.2004 131.286L66.2377 130.287L26.341 128.799L26.3037 129.798ZM26.8224 129.298V90.2651H25.8224V129.298H26.8224ZM66.8562 19.6439L66.6851 58.5033L67.6851 58.5077L67.8562 19.6483L66.8562 19.6439ZM67.3617 19.1462L28.5044 18.7133L28.4933 19.7132L67.3506 20.1461L67.3617 19.1462ZM67.0054 19.2898L47.4912 38.5031L48.1928 39.2157L67.707 20.0024L67.0054 19.2898ZM19.5142 28.1078L20.2268 27.4062C20.0407 27.2172 19.7872 27.1099 19.522 27.1078C19.2567 27.1058 19.0016 27.2091 18.8126 27.3952L19.5142 28.1078ZM93.4639 103.216L94.1655 103.928C94.3544 103.742 94.4618 103.489 94.4638 103.224C94.4659 102.958 94.3625 102.703 94.1764 102.514L93.4639 103.216ZM73.9497 122.429L73.2371 123.131C73.4232 123.32 73.6767 123.427 73.9419 123.429C74.2071 123.431 74.4623 123.328 74.6513 123.142L73.9497 122.429ZM0 47.321L-0.701591 46.6084C-0.890579 46.7945 -0.997909 47.048 -0.99997 47.3132C-1.00203 47.5784 -0.898654 47.8336 -0.71258 48.0226L0 47.321ZM56.489 65.6618L55.7764 66.3634L55.7764 66.3634L56.489 65.6618ZM74.9764 84.4388L74.2639 85.1404L74.2639 85.1404L74.9764 84.4388ZM36.9748 84.875L36.2623 85.5766L36.2623 85.5766L36.9748 84.875ZM18.4874 66.098L19.2 65.3964L19.2 65.3964L18.4874 66.098ZM55.4623 103.652L56.1748 102.95L56.1748 102.95L55.4623 103.652ZM25.4541 89.3832L26.1667 88.6816L25.4651 87.9691L24.7525 88.6707L25.4541 89.3832ZM66.219 130.787L66.9206 131.499L67.6332 130.798L66.9316 130.085L66.219 130.787ZM46.7048 150L45.9922 150.701L46.6938 151.414L47.4064 150.712L46.7048 150ZM5.93994 108.596L5.23835 107.884L4.52577 108.585L5.22736 109.298L5.93994 108.596ZM26.3224 129.298L25.6098 130L25.6098 130L26.3224 129.298ZM45.8366 110.085L46.5491 109.383L46.5491 109.383L45.8366 110.085ZM26.3224 90.2651L27.035 89.5635L27.035 89.5635L26.3224 90.2651ZM48.013 0L48.7256 -0.701591L48.024 -1.41417L47.3114 -0.71258L48.013 0ZM86.6993 39.2923L87.4009 40.0049L88.1135 39.3033L87.4119 38.5907L86.6993 39.2923ZM67.1851 58.5055L66.4725 59.2071L67.1741 59.9197L67.8867 59.2181L67.1851 58.5055ZM28.4988 19.2132L27.7972 18.5006L27.0847 19.2022L27.7863 19.9148L28.4988 19.2132ZM67.3562 19.6461L66.6436 20.3477L66.6436 20.3477L67.3562 19.6461ZM47.842 38.8594L48.5546 38.1578L48.5546 38.1578L47.842 38.8594ZM92.7623 102.503L73.2481 121.716L74.6513 123.142L94.1655 103.928L92.7623 102.503ZM0.701591 48.0336L20.2158 28.8204L18.8126 27.3952L-0.701591 46.6084L0.701591 48.0336ZM55.7764 66.3634L74.2639 85.1404L75.689 83.7372L57.2016 64.9602L55.7764 66.3634ZM74.2639 85.1404L92.7513 103.917L94.1764 102.514L75.689 83.7372L74.2639 85.1404ZM37.6874 84.1734L19.2 65.3964L17.7748 66.7996L36.2623 85.5766L37.6874 84.1734ZM19.2 65.3964L0.71258 46.6194L-0.71258 48.0226L17.7748 66.7996L19.2 65.3964ZM18.8016 28.8094L37.289 47.5864L38.7142 46.1832L20.2268 27.4062L18.8016 28.8094ZM37.289 47.5864L55.7764 66.3634L57.2016 64.9602L38.7142 46.1832L37.289 47.5864ZM74.6623 121.727L56.1748 102.95L54.7497 104.354L73.2371 123.131L74.6623 121.727ZM56.1748 102.95L37.6874 84.1734L36.2623 85.5766L54.7497 104.354L56.1748 102.95ZM65.5174 130.074L46.0032 149.287L47.4064 150.712L66.9206 131.499L65.5174 130.074ZM6.64153 109.309L26.1557 90.0958L24.7525 88.6707L5.23835 107.884L6.64153 109.309ZM47.4174 149.298L27.035 128.597L25.6098 130L45.9922 150.701L47.4174 149.298ZM27.035 128.597L6.65252 107.895L5.22736 109.298L25.6098 130L27.035 128.597ZM45.124 110.787L65.5064 131.488L66.9316 130.085L46.5491 109.383L45.124 110.787ZM24.7415 90.0848L25.6098 90.9667L27.035 89.5635L26.1667 88.6816L24.7415 90.0848ZM25.6098 90.9667L45.124 110.787L46.5491 109.383L27.035 89.5635L25.6098 90.9667ZM85.9977 38.5797L66.4835 57.7929L67.8867 59.2181L87.4009 40.0049L85.9977 38.5797ZM29.2004 19.9258L48.7146 0.71258L47.3114 -0.71258L27.7972 18.5006L29.2004 19.9258ZM47.3004 0.701591L66.6436 20.3477L68.0687 18.9445L48.7256 -0.701591L47.3004 0.701591ZM66.6436 20.3477L85.9867 39.9939L87.4119 38.5907L68.0687 18.9445L66.6436 20.3477ZM67.8977 57.8039L48.5546 38.1578L47.1294 39.561L66.4725 59.2071L67.8977 57.8039ZM48.5546 38.1578L29.2114 18.5116L27.7863 19.9148L47.1294 39.561L48.5546 38.1578Z" fill="#B3B3B3" mask="url(#path-1-inside-1)"/>
</svg>
