<svg width="auto" height="auto" viewBox="0 0 672 375" fill="none" xmlns="http://www.w3.org/2000/svg">
<g filter="url(#filter0_d)">
<rect x="309.972" y="142.445" width="100.568" height="26.1291" rx="2" transform="rotate(45.4452 309.972 142.445)" fill="url(#paint0_linear)"/>
<path d="M314.215 202.313C315.002 201.538 316.268 201.548 317.043 202.335L353.132 238.989C353.907 239.776 353.897 241.042 353.11 241.817L337.341 257.343C336.554 258.118 335.288 258.108 334.513 257.321L298.424 220.667C297.649 219.88 297.659 218.613 298.446 217.838L314.215 202.313Z" fill="url(#paint1_linear)"/>
<path d="M335.74 117.03C336.527 116.255 337.793 116.265 338.568 117.052L372.673 151.691C373.448 152.478 373.438 153.745 372.651 154.52L356.883 170.045C356.096 170.82 354.829 170.81 354.054 170.023L319.949 135.384C319.174 134.596 319.184 133.33 319.971 132.555L335.74 117.03Z" fill="url(#paint2_linear)"/>
</g>
<g filter="url(#filter1_d)">
<path d="M134.096 186.232L133.424 186.184C132.464 186.184 131.552 185.8 130.88 185.128C130.208 184.456 129.872 183.544 129.872 182.68C129.968 180.856 131.648 179.416 133.664 179.464C134.96 179.512 136.064 180.136 136.688 181.192L143.456 177.784C141.584 174.424 137.888 172.36 133.952 172.216C127.52 172.024 122.336 176.584 122.144 182.44C121.952 188.248 126.848 193.192 133.088 193.432L133.808 193.48C134.768 193.48 135.68 193.864 136.352 194.536C137.024 195.256 137.36 196.12 137.36 196.984C137.264 198.808 135.632 200.296 133.568 200.2C132.272 200.152 131.168 199.528 130.544 198.472L128.72 195.256L121.904 198.76L123.776 201.88C125.648 205.24 129.344 207.304 133.328 207.448C133.424 207.448 133.568 207.448 133.712 207.448C139.904 207.448 144.896 202.936 145.088 197.224C145.328 191.368 140.336 186.424 134.096 186.232ZM150.496 173.128V180.472H160.864V207.448H168.208V180.472H178.576V173.128H150.496ZM185.744 207.4H193.088V198.136H194.624L200.336 207.448H208.88L202.352 197.128C206.912 195.256 210.128 190.792 210.128 185.56C210.128 178.648 204.512 173.08 197.648 173.08H185.744V207.4ZM193.088 180.424H197.648C200.48 180.424 202.784 182.728 202.784 185.56C202.784 188.392 200.48 190.696 197.648 190.696H193.088V180.424ZM226.288 173.128H218.944V207.448H226.288V173.128ZM259.185 173.128L251.985 185.608L244.545 173.128H235.521L247.425 191.752L235.665 207.448H244.833L251.985 197.896L259.185 207.448H268.401L256.593 191.752L268.353 173.128H259.185ZM434.263 173.128L423.079 184.936L411.895 173.128H406.135L405.895 207.448H413.239L413.431 185.416L423.079 195.592L432.727 185.416L432.919 207.448H440.263L440.023 173.128H434.263ZM470.023 193.672C470.023 197.224 467.143 200.104 463.591 200.104C460.039 200.104 457.159 197.224 457.159 193.672V173.128H449.815V193.672C449.815 201.256 456.007 207.448 463.591 207.448C471.223 207.448 477.367 201.256 477.367 193.672V173.128H470.023V193.672ZM495.943 186.232L495.271 186.184C494.311 186.184 493.399 185.8 492.727 185.128C492.055 184.456 491.719 183.544 491.719 182.68C491.815 180.856 493.495 179.416 495.511 179.464C496.807 179.512 497.911 180.136 498.535 181.192L505.303 177.784C503.431 174.424 499.735 172.36 495.799 172.216C489.367 172.024 484.183 176.584 483.991 182.44C483.799 188.248 488.695 193.192 494.935 193.432L495.655 193.48C496.615 193.48 497.527 193.864 498.199 194.536C498.871 195.256 499.207 196.12 499.207 196.984C499.111 198.808 497.479 200.296 495.415 200.2C494.119 200.152 493.015 199.528 492.391 198.472L490.567 195.256L483.751 198.76L485.623 201.88C487.495 205.24 491.191 207.304 495.175 207.448C495.271 207.448 495.415 207.448 495.559 207.448C501.751 207.448 506.743 202.936 506.935 197.224C507.175 191.368 502.183 186.424 495.943 186.232ZM522.327 173.128H514.983V207.448H522.327V173.128ZM556.327 196.936C554.407 198.856 551.911 199.912 549.175 199.912C543.655 199.912 539.095 195.352 539.095 189.832C539.095 184.264 543.655 179.704 549.175 179.704C551.863 179.752 554.407 180.712 556.327 182.68L559.015 185.32L564.343 179.992L561.655 177.352C558.391 174.04 553.879 172.168 549.175 172.168C539.479 172.168 531.559 180.088 531.559 189.832C531.559 199.528 539.479 207.448 549.175 207.448C553.927 207.496 558.343 205.624 561.655 202.264L564.343 199.576L559.015 194.248L556.327 196.936Z" fill="url(#paint3_linear)"/>
</g>
<defs>
<filter id="filter0_d" x="281.353" y="108.626" width="109.177" height="163.119" filterUnits="userSpaceOnUse" color-interpolation-filters="sRGB">
<feFlood flood-opacity="0" result="BackgroundImageFix"/>
<feColorMatrix in="SourceAlpha" type="matrix" values="0 0 0 0 0 0 0 0 0 0 0 0 0 0 0 0 0 0 127 0"/>
<feOffset dy="3"/>
<feGaussianBlur stdDeviation="5"/>
<feColorMatrix type="matrix" values="0 0 0 0 0 0 0 0 0 0 0 0 0 0 0 0 0 0 0.45 0"/>
<feBlend mode="normal" in2="BackgroundImageFix" result="effect1_dropShadow"/>
<feBlend mode="normal" in="SourceGraphic" in2="effect1_dropShadow" result="shape"/>
</filter>
<filter id="filter1_d" x="117.904" y="170.168" width="450.44" height="43.2809" filterUnits="userSpaceOnUse" color-interpolation-filters="sRGB">
<feFlood flood-opacity="0" result="BackgroundImageFix"/>
<feColorMatrix in="SourceAlpha" type="matrix" values="0 0 0 0 0 0 0 0 0 0 0 0 0 0 0 0 0 0 127 0"/>
<feOffset dy="2"/>
<feGaussianBlur stdDeviation="2"/>
<feColorMatrix type="matrix" values="0 0 0 0 0 0 0 0 0 0 0 0 0 0 0 0 0 0 0.25 0"/>
<feBlend mode="normal" in2="BackgroundImageFix" result="effect1_dropShadow"/>
<feBlend mode="normal" in="SourceGraphic" in2="effect1_dropShadow" result="shape"/>
</filter>
<linearGradient id="paint0_linear" x1="359.269" y1="104.285" x2="358.654" y2="208.043" gradientUnits="userSpaceOnUse">
<stop stop-color="#C94EDD"/>
<stop offset="0.710933" stop-color="#AD44E1"/>
</linearGradient>
<linearGradient id="paint1_linear" x1="373.761" y1="152.81" x2="297.383" y2="225.167" gradientUnits="userSpaceOnUse">
<stop stop-color="#CC37E4"/>
<stop offset="1" stop-color="#AD44E1"/>
</linearGradient>
<linearGradient id="paint2_linear" x1="373.761" y1="150.8" x2="296.379" y2="222.153" gradientUnits="userSpaceOnUse">
<stop stop-color="#CC37E4"/>
<stop offset="0.6875" stop-color="#AD44E1"/>
</linearGradient>
<linearGradient id="paint3_linear" x1="162.734" y1="101.582" x2="142.724" y2="226.15" gradientUnits="userSpaceOnUse">
<stop offset="0.633954" stop-color="#9F9F9F"/>
</linearGradient>
</defs>
</svg>
