<svg preserveAspectRatio="xMinYMin meet" width="auto" height="auto" viewBox="0 0 414 200" fill="none" xmlns="http://www.w3.org/2000/svg">
<g filter="url(#filter0_d)">
<rect x="190.669" y="69.0057" width="69.6679" height="18.1007" rx="2" transform="rotate(45.4452 190.669 69.0057)" fill="url(#paint0_linear)"/>
<path d="M193.17 110.91C193.957 110.135 195.224 110.145 195.999 110.932L220.136 135.448C220.911 136.235 220.902 137.501 220.114 138.276L210.067 148.169C209.279 148.944 208.013 148.934 207.238 148.147L183.1 123.631C182.325 122.844 182.335 121.578 183.122 120.803L193.17 110.91Z" fill="url(#paint1_linear)"/>
<path d="M208.081 51.8307C208.868 51.0557 210.134 51.0656 210.909 51.8527L233.673 74.9732C234.448 75.7603 234.439 77.0266 233.651 77.8016L223.604 87.6945C222.816 88.4695 221.55 88.4596 220.775 87.6725L198.011 64.552C197.236 63.7649 197.246 62.4986 198.033 61.7236L208.081 51.8307Z" fill="url(#paint2_linear)"/>
</g>
<g filter="url(#filter1_d)">
<path d="M56.9864 102.595L56.4824 102.559C55.7624 102.559 55.0784 102.271 54.5744 101.767C54.0704 101.263 53.8184 100.579 53.8184 99.9308C53.8904 98.5628 55.1504 97.4828 56.6624 97.5188C57.6344 97.5548 58.4624 98.0228 58.9304 98.8148L64.0064 96.2588C62.6024 93.7388 59.8304 92.1908 56.8784 92.0828C52.0544 91.9388 48.1664 95.3588 48.0224 99.7508C47.8784 104.107 51.5504 107.815 56.2304 107.995L56.7704 108.031C57.4904 108.031 58.1744 108.319 58.6784 108.823C59.1824 109.363 59.4344 110.011 59.4344 110.659C59.3624 112.027 58.1384 113.143 56.5904 113.071C55.6184 113.035 54.7904 112.567 54.3224 111.775L52.9544 109.363L47.8424 111.991L49.2464 114.331C50.6504 116.851 53.4224 118.399 56.4104 118.507C56.4824 118.507 56.5904 118.507 56.6984 118.507C61.3424 118.507 65.0864 115.123 65.2304 110.839C65.4104 106.447 61.6664 102.739 56.9864 102.595ZM69.2863 92.7668V98.2748H77.0623V118.507H82.5703V98.2748H90.3463V92.7668H69.2863ZM95.7224 118.471H101.23V111.523H102.382L106.666 118.507H113.074L108.178 110.767C111.598 109.363 114.01 106.015 114.01 102.091C114.01 96.9068 109.798 92.7308 104.65 92.7308H95.7224V118.471ZM101.23 98.2388H104.65C106.774 98.2388 108.502 99.9668 108.502 102.091C108.502 104.215 106.774 105.943 104.65 105.943H101.23V98.2388ZM126.131 92.7668H120.623V118.507H126.131V92.7668ZM150.804 92.7668L145.404 102.127L139.824 92.7668H133.056L141.984 106.735L133.164 118.507H140.04L145.404 111.343L150.804 118.507H157.716L148.86 106.735L157.68 92.7668H150.804ZM282.112 92.7668L273.724 101.623L265.336 92.7668H261.016L260.836 118.507H266.344L266.488 101.983L273.724 109.615L280.96 101.983L281.104 118.507H286.612L286.432 92.7668H282.112ZM308.932 108.175C308.932 110.839 306.772 112.999 304.108 112.999C301.444 112.999 299.284 110.839 299.284 108.175V92.7668H293.776V108.175C293.776 113.863 298.42 118.507 304.108 118.507C309.832 118.507 314.44 113.863 314.44 108.175V92.7668H308.932V108.175ZM328.372 102.595L327.868 102.559C327.148 102.559 326.464 102.271 325.96 101.767C325.456 101.263 325.204 100.579 325.204 99.9308C325.276 98.5628 326.536 97.4828 328.048 97.5188C329.02 97.5548 329.848 98.0228 330.316 98.8148L335.392 96.2588C333.988 93.7388 331.216 92.1908 328.264 92.0828C323.44 91.9388 319.552 95.3588 319.408 99.7508C319.264 104.107 322.936 107.815 327.616 107.995L328.156 108.031C328.876 108.031 329.56 108.319 330.064 108.823C330.568 109.363 330.82 110.011 330.82 110.659C330.748 112.027 329.524 113.143 327.976 113.071C327.004 113.035 326.176 112.567 325.708 111.775L324.34 109.363L319.228 111.991L320.632 114.331C322.036 116.851 324.808 118.399 327.796 118.507C327.868 118.507 327.976 118.507 328.084 118.507C332.728 118.507 336.472 115.123 336.616 110.839C336.796 106.447 333.052 102.739 328.372 102.595ZM348.159 92.7668H342.651V118.507H348.159V92.7668ZM373.66 110.623C372.22 112.063 370.348 112.855 368.296 112.855C364.156 112.855 360.736 109.435 360.736 105.295C360.736 101.119 364.156 97.6988 368.296 97.6988C370.312 97.7348 372.22 98.4548 373.66 99.9308L375.676 101.911L379.672 97.9148L377.656 95.9348C375.208 93.4508 371.824 92.0468 368.296 92.0468C361.024 92.0468 355.084 97.9868 355.084 105.295C355.084 112.567 361.024 118.507 368.296 118.507C371.86 118.543 375.172 117.139 377.656 114.619L379.672 112.603L375.676 108.607L373.66 110.623Z" fill="url(#paint3_linear)"/>
</g>
<defs>
<filter id="filter0_d" x="167.771" y="43.4275" width="81.7765" height="119.145" filterUnits="userSpaceOnUse" color-interpolation-filters="sRGB">
<feFlood flood-opacity="0" result="BackgroundImageFix"/>
<feColorMatrix in="SourceAlpha" type="matrix" values="0 0 0 0 0 0 0 0 0 0 0 0 0 0 0 0 0 0 127 0"/>
<feOffset dy="3"/>
<feGaussianBlur stdDeviation="5"/>
<feColorMatrix type="matrix" values="0 0 0 0 0 0 0 0 0 0 0 0 0 0 0 0 0 0 0.45 0"/>
<feBlend mode="normal" in2="BackgroundImageFix" result="effect1_dropShadow"/>
<feBlend mode="normal" in="SourceGraphic" in2="effect1_dropShadow" result="shape"/>
</filter>
<filter id="filter1_d" x="43.8424" y="90.0469" width="339.83" height="34.4607" filterUnits="userSpaceOnUse" color-interpolation-filters="sRGB">
<feFlood flood-opacity="0" result="BackgroundImageFix"/>
<feColorMatrix in="SourceAlpha" type="matrix" values="0 0 0 0 0 0 0 0 0 0 0 0 0 0 0 0 0 0 127 0"/>
<feOffset dy="2"/>
<feGaussianBlur stdDeviation="2"/>
<feColorMatrix type="matrix" values="0 0 0 0 0 0 0 0 0 0 0 0 0 0 0 0 0 0 0.25 0"/>
<feBlend mode="normal" in2="BackgroundImageFix" result="effect1_dropShadow"/>
<feBlend mode="normal" in="SourceGraphic" in2="effect1_dropShadow" result="shape"/>
</filter>
<linearGradient id="paint0_linear" x1="224.819" y1="42.5706" x2="224.393" y2="114.448" gradientUnits="userSpaceOnUse">
<stop stop-color="#C94EDD"/>
<stop offset="0.710933" stop-color="#AD44E1"/>
</linearGradient>
<linearGradient id="paint1_linear" x1="234.858" y1="76.1861" x2="181.948" y2="126.311" gradientUnits="userSpaceOnUse">
<stop stop-color="#CC37E4"/>
<stop offset="1" stop-color="#AD44E1"/>
</linearGradient>
<linearGradient id="paint2_linear" x1="234.858" y1="74.7939" x2="181.252" y2="124.223" gradientUnits="userSpaceOnUse">
<stop stop-color="#CC37E4"/>
<stop offset="0.6875" stop-color="#AD44E1"/>
</linearGradient>
<linearGradient id="paint3_linear" x1="77.1449" y1="22.2622" x2="68.4387" y2="119.275" gradientUnits="userSpaceOnUse">
<stop offset="0.330705" stop-color="#D2D2D2"/>
</linearGradient>
</defs>
</svg>
