<svg width="auto" height="auto" viewBox="0 0 415 201" fill="none" xmlns="http://www.w3.org/2000/svg">
<g filter="url(#filter0_d)">
<rect x="188.102" y="69.3889" width="69.6679" height="18.1007" rx="2" transform="rotate(45.4452 188.102 69.3889)" fill="url(#paint0_linear)"/>
<path d="M190.603 111.293C191.39 110.518 192.656 110.528 193.431 111.315L217.569 135.831C218.344 136.618 218.334 137.885 217.547 138.66L207.499 148.552C206.712 149.327 205.446 149.318 204.671 148.53L180.533 124.014C179.758 123.227 179.768 121.961 180.555 121.186L190.603 111.293Z" fill="url(#paint1_linear)"/>
<path d="M205.514 52.2138C206.301 51.4389 207.567 51.4487 208.342 52.2358L231.106 75.3564C231.881 76.1435 231.871 77.4098 231.084 78.1848L221.036 88.0777C220.249 88.8527 218.983 88.8428 218.208 88.0557L195.444 64.9351C194.669 64.148 194.679 62.8818 195.466 62.1068L205.514 52.2138Z" fill="url(#paint2_linear)"/>
</g>
<g filter="url(#filter1_d)">
<path d="M54.4191 102.978L53.9151 102.942C53.1951 102.942 52.5111 102.654 52.0071 102.15C51.5031 101.646 51.2511 100.962 51.2511 100.314C51.3231 98.946 52.5831 97.866 54.0951 97.902C55.0671 97.938 55.8951 98.406 56.3631 99.198L61.4391 96.642C60.0351 94.122 57.2631 92.574 54.3111 92.466C49.4871 92.322 45.5991 95.742 45.4551 100.134C45.3111 104.49 48.9831 108.198 53.6631 108.378L54.2031 108.414C54.9231 108.414 55.6071 108.702 56.1111 109.206C56.6151 109.746 56.8671 110.394 56.8671 111.042C56.7951 112.41 55.5711 113.526 54.0231 113.454C53.0511 113.418 52.2231 112.95 51.7551 112.158L50.3871 109.746L45.2751 112.374L46.6791 114.714C48.0831 117.234 50.8551 118.782 53.8431 118.89C53.9151 118.89 54.0231 118.89 54.1311 118.89C58.7751 118.89 62.5191 115.506 62.6631 111.222C62.8431 106.83 59.0991 103.122 54.4191 102.978ZM66.7191 93.15V98.658H74.4951V118.89H80.0031V98.658H87.7791V93.15H66.7191ZM93.1551 118.854H98.6631V111.906H99.8151L104.099 118.89H110.507L105.611 111.15C109.031 109.746 111.443 106.398 111.443 102.474C111.443 97.29 107.231 93.114 102.083 93.114H93.1551V118.854ZM98.6631 98.622H102.083C104.207 98.622 105.935 100.35 105.935 102.474C105.935 104.598 104.207 106.326 102.083 106.326H98.6631V98.622ZM123.564 93.15H118.056V118.89H123.564V93.15ZM148.236 93.15L142.836 102.51L137.256 93.15H130.488L139.416 107.118L130.596 118.89H137.472L142.836 111.726L148.236 118.89H155.148L146.292 107.118L155.112 93.15H148.236ZM279.545 93.15L271.157 102.006L262.769 93.15H258.449L258.269 118.89H263.777L263.921 102.366L271.157 109.998L278.393 102.366L278.537 118.89H284.045L283.865 93.15H279.545ZM306.365 108.558C306.365 111.222 304.205 113.382 301.541 113.382C298.877 113.382 296.717 111.222 296.717 108.558V93.15H291.209V108.558C291.209 114.246 295.853 118.89 301.541 118.89C307.265 118.89 311.873 114.246 311.873 108.558V93.15H306.365V108.558ZM325.804 102.978L325.3 102.942C324.58 102.942 323.896 102.654 323.392 102.15C322.888 101.646 322.636 100.962 322.636 100.314C322.708 98.946 323.968 97.866 325.48 97.902C326.452 97.938 327.28 98.406 327.748 99.198L332.824 96.642C331.42 94.122 328.648 92.574 325.696 92.466C320.872 92.322 316.984 95.742 316.84 100.134C316.696 104.49 320.368 108.198 325.048 108.378L325.588 108.414C326.308 108.414 326.992 108.702 327.496 109.206C328 109.746 328.252 110.394 328.252 111.042C328.18 112.41 326.956 113.526 325.408 113.454C324.436 113.418 323.608 112.95 323.14 112.158L321.772 109.746L316.66 112.374L318.064 114.714C319.468 117.234 322.24 118.782 325.228 118.89C325.3 118.89 325.408 118.89 325.516 118.89C330.16 118.89 333.904 115.506 334.048 111.222C334.228 106.83 330.484 103.122 325.804 102.978ZM345.592 93.15H340.084V118.89H345.592V93.15ZM371.093 111.006C369.653 112.446 367.781 113.238 365.729 113.238C361.589 113.238 358.169 109.818 358.169 105.678C358.169 101.502 361.589 98.082 365.729 98.082C367.745 98.118 369.653 98.838 371.093 100.314L373.109 102.294L377.105 98.298L375.089 96.318C372.641 93.834 369.257 92.43 365.729 92.43C358.457 92.43 352.517 98.37 352.517 105.678C352.517 112.95 358.457 118.89 365.729 118.89C369.293 118.926 372.605 117.522 375.089 115.002L377.105 112.986L373.109 108.99L371.093 111.006Z" fill="url(#paint3_linear)"/>
</g>
<defs>
<filter id="filter0_d" x="165.204" y="43.8107" width="81.7765" height="119.145" filterUnits="userSpaceOnUse" color-interpolation-filters="sRGB">
<feFlood flood-opacity="0" result="BackgroundImageFix"/>
<feColorMatrix in="SourceAlpha" type="matrix" values="0 0 0 0 0 0 0 0 0 0 0 0 0 0 0 0 0 0 127 0"/>
<feOffset dy="3"/>
<feGaussianBlur stdDeviation="5"/>
<feColorMatrix type="matrix" values="0 0 0 0 0 0 0 0 0 0 0 0 0 0 0 0 0 0 0.45 0"/>
<feBlend mode="normal" in2="BackgroundImageFix" result="effect1_dropShadow"/>
<feBlend mode="normal" in="SourceGraphic" in2="effect1_dropShadow" result="shape"/>
</filter>
<filter id="filter1_d" x="41.2751" y="90.4301" width="339.83" height="34.4607" filterUnits="userSpaceOnUse" color-interpolation-filters="sRGB">
<feFlood flood-opacity="0" result="BackgroundImageFix"/>
<feColorMatrix in="SourceAlpha" type="matrix" values="0 0 0 0 0 0 0 0 0 0 0 0 0 0 0 0 0 0 127 0"/>
<feOffset dy="2"/>
<feGaussianBlur stdDeviation="2"/>
<feColorMatrix type="matrix" values="0 0 0 0 0 0 0 0 0 0 0 0 0 0 0 0 0 0 0.25 0"/>
<feBlend mode="normal" in2="BackgroundImageFix" result="effect1_dropShadow"/>
<feBlend mode="normal" in="SourceGraphic" in2="effect1_dropShadow" result="shape"/>
</filter>
<linearGradient id="paint0_linear" x1="222.252" y1="42.9538" x2="221.826" y2="114.831" gradientUnits="userSpaceOnUse">
<stop stop-color="#C94EDD"/>
<stop offset="0.710933" stop-color="#AD44E1"/>
</linearGradient>
<linearGradient id="paint1_linear" x1="232.291" y1="76.5693" x2="179.381" y2="126.694" gradientUnits="userSpaceOnUse">
<stop stop-color="#CC37E4"/>
<stop offset="1" stop-color="#AD44E1"/>
</linearGradient>
<linearGradient id="paint2_linear" x1="232.291" y1="75.1771" x2="178.685" y2="124.606" gradientUnits="userSpaceOnUse">
<stop stop-color="#CC37E4"/>
<stop offset="0.6875" stop-color="#AD44E1"/>
</linearGradient>
<linearGradient id="paint3_linear" x1="74.5776" y1="22.6454" x2="65.8714" y2="119.658" gradientUnits="userSpaceOnUse">
<stop offset="0.330705" stop-color="#9F9F9F"/>
</linearGradient>
</defs>
</svg>
